<svg width="92.000000" height="92.000000" viewBox="0 0 92 92" fill="none" xmlns="http://www.w3.org/2000/svg" xmlns:xlink="http://www.w3.org/1999/xlink">
	<desc>
			Created with Pixso.
	</desc>
	<defs/>
	<path id="Logo" d="M37 0L55 0L55 18L37 18L37 0ZM18 18L37 18L37 37L18 37L18 18ZM55 18L74 18L74 37L55 37L55 18ZM0 37L18 37L18 55L0 55L0 37ZM37 37L55 37L55 55L37 55L37 37ZM74 37L92 37L92 55L74 55L74 37ZM18 55L37 55L37 74L18 74L18 55ZM55 55L74 55L74 74L55 74L55 55ZM37 74L55 74L55 92L37 92L37 74Z" fill="#9747FF" fill-opacity="1.000000" fill-rule="evenodd"/>
	<path id="Logo" d="M57 18L55 18L55 0L37 0L37 18L18 18L18 37L0 37L0 55L18 55L18 74L37 74L37 92L55 92L55 74L74 74L74 55L92 55L92 37L74 37L74 18L57 18ZM72 20L57 20L57 35L72 35L72 20ZM72 37L74 37L74 55L55 55L55 37L72 37ZM53 37L55 37L55 18L37 18L37 37L18 37L18 55L37 55L37 74L55 74L55 55L37 55L37 37L53 37ZM53 39L39 39L39 53L53 53L53 39ZM57 57L57 72L72 72L72 57L57 57ZM53 76L39 76L39 90L53 90L53 76ZM35 72L35 57L20 57L20 72L35 72ZM16 53L16 39L2 39L2 53L16 53ZM20 35L35 35L35 20L20 20L20 35ZM39 16L53 16L53 2L39 2L39 16ZM76 53L90 53L90 39L76 39L76 53Z" fill="#000000" fill-opacity="1.000000" fill-rule="evenodd"/>
</svg>
